<mxfile host="app.diagrams.net" agent="Mozilla/5.0 (Windows NT 10.0; Win64; x64) AppleWebKit/537.36 (KHTML, like Gecko) Chrome/136.0.0.0 Safari/537.36 Edg/136.0.0.0" version="27.0.6">
  <diagram name="Страница — 1" id="WKGYQiWRMjDiwxb9k2Cm">
    <mxGraphModel dx="4673" dy="1394" grid="1" gridSize="10" guides="1" tooltips="1" connect="1" arrows="1" fold="1" page="1" pageScale="1" pageWidth="827" pageHeight="1169" math="0" shadow="0">
      <root>
        <mxCell id="0" />
        <mxCell id="1" parent="0" />
        <mxCell id="K87zxG0gz5tmunMgLMRo-1" style="edgeStyle=orthogonalEdgeStyle;rounded=0;orthogonalLoop=1;jettySize=auto;html=1;exitX=0.5;exitY=1;exitDx=0;exitDy=0;entryX=0.5;entryY=0;entryDx=0;entryDy=0;" edge="1" parent="1" source="K87zxG0gz5tmunMgLMRo-2" target="K87zxG0gz5tmunMgLMRo-4">
          <mxGeometry relative="1" as="geometry" />
        </mxCell>
        <mxCell id="K87zxG0gz5tmunMgLMRo-2" value="Начало" style="ellipse;whiteSpace=wrap;html=1;" vertex="1" parent="1">
          <mxGeometry x="940" y="1635" width="160" height="50" as="geometry" />
        </mxCell>
        <mxCell id="K87zxG0gz5tmunMgLMRo-3" style="edgeStyle=orthogonalEdgeStyle;rounded=0;orthogonalLoop=1;jettySize=auto;html=1;exitX=0.5;exitY=1;exitDx=0;exitDy=0;" edge="1" parent="1" source="K87zxG0gz5tmunMgLMRo-4" target="K87zxG0gz5tmunMgLMRo-7">
          <mxGeometry relative="1" as="geometry" />
        </mxCell>
        <mxCell id="K87zxG0gz5tmunMgLMRo-4" value="&lt;span style=&quot;font-size: 12px;&quot;&gt;string? line&lt;/span&gt;" style="rounded=0;whiteSpace=wrap;html=1;" vertex="1" parent="1">
          <mxGeometry x="907" y="1715" width="226" height="60" as="geometry" />
        </mxCell>
        <mxCell id="K87zxG0gz5tmunMgLMRo-5" style="edgeStyle=orthogonalEdgeStyle;rounded=0;orthogonalLoop=1;jettySize=auto;html=1;exitX=0.5;exitY=1;exitDx=0;exitDy=0;entryX=0.5;entryY=0;entryDx=0;entryDy=0;" edge="1" parent="1" source="K87zxG0gz5tmunMgLMRo-7" target="K87zxG0gz5tmunMgLMRo-34">
          <mxGeometry relative="1" as="geometry" />
        </mxCell>
        <mxCell id="K87zxG0gz5tmunMgLMRo-6" style="edgeStyle=orthogonalEdgeStyle;rounded=0;orthogonalLoop=1;jettySize=auto;html=1;exitX=1;exitY=0.5;exitDx=0;exitDy=0;entryX=0.5;entryY=0;entryDx=0;entryDy=0;" edge="1" parent="1" source="K87zxG0gz5tmunMgLMRo-7" target="K87zxG0gz5tmunMgLMRo-32">
          <mxGeometry relative="1" as="geometry">
            <mxPoint x="1300" y="3165" as="targetPoint" />
            <Array as="points">
              <mxPoint x="1370" y="1880" />
              <mxPoint x="1370" y="3590" />
              <mxPoint x="1009" y="3590" />
            </Array>
          </mxGeometry>
        </mxCell>
        <mxCell id="K87zxG0gz5tmunMgLMRo-7" value="&lt;span style=&quot;font-size: 12px;&quot;&gt;(line =&amp;nbsp;&lt;/span&gt;&lt;div&gt;&lt;span style=&quot;font-size: 12px;&quot;&gt;Console.ReadLine()) != null&lt;/span&gt;&lt;/div&gt;" style="rhombus;whiteSpace=wrap;html=1;" vertex="1" parent="1">
          <mxGeometry x="930" y="1820" width="180" height="120" as="geometry" />
        </mxCell>
        <mxCell id="K87zxG0gz5tmunMgLMRo-8" style="edgeStyle=orthogonalEdgeStyle;rounded=0;orthogonalLoop=1;jettySize=auto;html=1;exitX=0.5;exitY=1;exitDx=0;exitDy=0;entryX=0.5;entryY=0;entryDx=0;entryDy=0;" edge="1" parent="1" source="K87zxG0gz5tmunMgLMRo-34" target="K87zxG0gz5tmunMgLMRo-47">
          <mxGeometry relative="1" as="geometry">
            <mxPoint x="1232.9999999999995" y="2199.9300000000003" as="sourcePoint" />
          </mxGeometry>
        </mxCell>
        <mxCell id="K87zxG0gz5tmunMgLMRo-9" value="да" style="text;html=1;align=center;verticalAlign=middle;resizable=0;points=[];autosize=1;strokeColor=none;fillColor=none;" vertex="1" parent="1">
          <mxGeometry x="1010" y="1940" width="40" height="30" as="geometry" />
        </mxCell>
        <mxCell id="K87zxG0gz5tmunMgLMRo-10" value="нет" style="text;html=1;align=center;verticalAlign=middle;resizable=0;points=[];autosize=1;strokeColor=none;fillColor=none;" vertex="1" parent="1">
          <mxGeometry x="1103" y="1855" width="40" height="30" as="geometry" />
        </mxCell>
        <mxCell id="K87zxG0gz5tmunMgLMRo-11" value="да" style="text;html=1;align=center;verticalAlign=middle;resizable=0;points=[];autosize=1;strokeColor=none;fillColor=none;" vertex="1" parent="1">
          <mxGeometry x="1100" y="2095" width="40" height="30" as="geometry" />
        </mxCell>
        <mxCell id="K87zxG0gz5tmunMgLMRo-12" value="" style="edgeStyle=orthogonalEdgeStyle;rounded=0;orthogonalLoop=1;jettySize=auto;html=1;entryX=0.5;entryY=0;entryDx=0;entryDy=0;exitX=0.5;exitY=1;exitDx=0;exitDy=0;" edge="1" parent="1" source="K87zxG0gz5tmunMgLMRo-47" target="K87zxG0gz5tmunMgLMRo-36">
          <mxGeometry relative="1" as="geometry">
            <mxPoint x="970" y="2220" as="sourcePoint" />
            <mxPoint x="1010" y="2327.4300000000003" as="targetPoint" />
          </mxGeometry>
        </mxCell>
        <mxCell id="K87zxG0gz5tmunMgLMRo-13" value="нет" style="text;html=1;align=center;verticalAlign=middle;resizable=0;points=[];autosize=1;strokeColor=none;fillColor=none;" vertex="1" parent="1">
          <mxGeometry x="1020" y="2182.5" width="40" height="30" as="geometry" />
        </mxCell>
        <mxCell id="K87zxG0gz5tmunMgLMRo-14" style="edgeStyle=orthogonalEdgeStyle;rounded=0;orthogonalLoop=1;jettySize=auto;html=1;exitX=1;exitY=0.5;exitDx=0;exitDy=0;" edge="1" parent="1" source="K87zxG0gz5tmunMgLMRo-49">
          <mxGeometry relative="1" as="geometry">
            <mxPoint x="1020" y="2612" as="targetPoint" />
            <Array as="points">
              <mxPoint x="1150" y="2450" />
              <mxPoint x="1150" y="2612" />
            </Array>
            <mxPoint x="1065" y="2492.4300000000003" as="sourcePoint" />
          </mxGeometry>
        </mxCell>
        <mxCell id="K87zxG0gz5tmunMgLMRo-15" value="нет" style="text;html=1;align=center;verticalAlign=middle;resizable=0;points=[];autosize=1;strokeColor=none;fillColor=none;" vertex="1" parent="1">
          <mxGeometry x="1090" y="2420" width="40" height="30" as="geometry" />
        </mxCell>
        <mxCell id="K87zxG0gz5tmunMgLMRo-16" style="edgeStyle=orthogonalEdgeStyle;rounded=0;orthogonalLoop=1;jettySize=auto;html=1;exitX=0.5;exitY=1;exitDx=0;exitDy=0;entryX=0.5;entryY=0;entryDx=0;entryDy=0;" edge="1" parent="1" source="K87zxG0gz5tmunMgLMRo-39" target="K87zxG0gz5tmunMgLMRo-41">
          <mxGeometry relative="1" as="geometry">
            <mxPoint x="1010" y="2589.9300000000003" as="sourcePoint" />
            <mxPoint x="1017" y="2834" as="targetPoint" />
          </mxGeometry>
        </mxCell>
        <mxCell id="K87zxG0gz5tmunMgLMRo-17" value="" style="group" vertex="1" connectable="0" parent="1">
          <mxGeometry x="929" y="2735" width="180" height="40" as="geometry" />
        </mxCell>
        <mxCell id="K87zxG0gz5tmunMgLMRo-18" value="" style="verticalLabelPosition=bottom;verticalAlign=top;html=1;shape=hexagon;perimeter=hexagonPerimeter2;arcSize=6;size=0.27;" vertex="1" parent="K87zxG0gz5tmunMgLMRo-17">
          <mxGeometry width="180" height="40" as="geometry" />
        </mxCell>
        <mxCell id="K87zxG0gz5tmunMgLMRo-19" value="i = 2; i &amp;lt;= n; i++" style="text;html=1;align=center;verticalAlign=middle;resizable=0;points=[];autosize=1;strokeColor=none;fillColor=none;" vertex="1" parent="K87zxG0gz5tmunMgLMRo-17">
          <mxGeometry x="35" y="5" width="110" height="30" as="geometry" />
        </mxCell>
        <mxCell id="K87zxG0gz5tmunMgLMRo-20" style="edgeStyle=orthogonalEdgeStyle;rounded=0;orthogonalLoop=1;jettySize=auto;html=1;exitX=1;exitY=0.5;exitDx=0;exitDy=0;entryX=0.5;entryY=0;entryDx=0;entryDy=0;" edge="1" parent="1" source="K87zxG0gz5tmunMgLMRo-51" target="K87zxG0gz5tmunMgLMRo-42">
          <mxGeometry relative="1" as="geometry">
            <mxPoint x="1067" y="2994" as="sourcePoint" />
            <mxPoint x="1137" y="3054" as="targetPoint" />
          </mxGeometry>
        </mxCell>
        <mxCell id="K87zxG0gz5tmunMgLMRo-21" value="да" style="text;html=1;align=center;verticalAlign=middle;resizable=0;points=[];autosize=1;strokeColor=none;fillColor=none;" vertex="1" parent="1">
          <mxGeometry x="907" y="2830" width="40" height="30" as="geometry" />
        </mxCell>
        <mxCell id="K87zxG0gz5tmunMgLMRo-22" value="нет" style="text;html=1;align=center;verticalAlign=middle;resizable=0;points=[];autosize=1;strokeColor=none;fillColor=none;" vertex="1" parent="1">
          <mxGeometry x="1097" y="2824" width="40" height="30" as="geometry" />
        </mxCell>
        <mxCell id="K87zxG0gz5tmunMgLMRo-23" value="" style="endArrow=none;html=1;rounded=0;entryX=0.5;entryY=1;entryDx=0;entryDy=0;" edge="1" parent="1">
          <mxGeometry width="50" height="50" relative="1" as="geometry">
            <mxPoint x="890" y="3070" as="sourcePoint" />
            <mxPoint x="890" y="3014" as="targetPoint" />
          </mxGeometry>
        </mxCell>
        <mxCell id="K87zxG0gz5tmunMgLMRo-24" value="" style="endArrow=none;html=1;rounded=0;entryX=0.489;entryY=0.965;entryDx=0;entryDy=0;entryPerimeter=0;" edge="1" parent="1" target="K87zxG0gz5tmunMgLMRo-42">
          <mxGeometry width="50" height="50" relative="1" as="geometry">
            <mxPoint x="1140" y="3070" as="sourcePoint" />
            <mxPoint x="1137" y="3084" as="targetPoint" />
          </mxGeometry>
        </mxCell>
        <mxCell id="K87zxG0gz5tmunMgLMRo-25" value="" style="endArrow=none;html=1;rounded=0;" edge="1" parent="1">
          <mxGeometry width="50" height="50" relative="1" as="geometry">
            <mxPoint x="1140" y="3070" as="sourcePoint" />
            <mxPoint x="890" y="3070" as="targetPoint" />
          </mxGeometry>
        </mxCell>
        <mxCell id="K87zxG0gz5tmunMgLMRo-26" value="" style="endArrow=classic;html=1;rounded=0;entryX=0.5;entryY=0;entryDx=0;entryDy=0;" edge="1" parent="1" target="K87zxG0gz5tmunMgLMRo-55">
          <mxGeometry width="50" height="50" relative="1" as="geometry">
            <mxPoint x="1010" y="3070" as="sourcePoint" />
            <mxPoint x="1017" y="3204" as="targetPoint" />
          </mxGeometry>
        </mxCell>
        <mxCell id="K87zxG0gz5tmunMgLMRo-27" style="edgeStyle=orthogonalEdgeStyle;rounded=0;orthogonalLoop=1;jettySize=auto;html=1;entryX=0.544;entryY=0.02;entryDx=0;entryDy=0;exitX=0.5;exitY=1;exitDx=0;exitDy=0;entryPerimeter=0;" edge="1" parent="1" source="K87zxG0gz5tmunMgLMRo-55" target="K87zxG0gz5tmunMgLMRo-44">
          <mxGeometry relative="1" as="geometry">
            <mxPoint x="1019" y="3264" as="sourcePoint" />
            <mxPoint x="1019" y="3294" as="targetPoint" />
          </mxGeometry>
        </mxCell>
        <mxCell id="K87zxG0gz5tmunMgLMRo-28" value="да" style="text;html=1;align=center;verticalAlign=middle;resizable=0;points=[];autosize=1;strokeColor=none;fillColor=none;" vertex="1" parent="1">
          <mxGeometry x="1006" y="3235" width="40" height="30" as="geometry" />
        </mxCell>
        <mxCell id="K87zxG0gz5tmunMgLMRo-29" value="нет" style="text;html=1;align=center;verticalAlign=middle;resizable=0;points=[];autosize=1;strokeColor=none;fillColor=none;" vertex="1" parent="1">
          <mxGeometry x="1090" y="3125" width="40" height="30" as="geometry" />
        </mxCell>
        <mxCell id="K87zxG0gz5tmunMgLMRo-30" value="" style="endArrow=classic;html=1;rounded=0;entryX=0;entryY=0.5;entryDx=0;entryDy=0;edgeStyle=orthogonalEdgeStyle;" edge="1" parent="1" target="K87zxG0gz5tmunMgLMRo-18">
          <mxGeometry width="50" height="50" relative="1" as="geometry">
            <mxPoint x="750" y="3440" as="sourcePoint" />
            <mxPoint x="927" y="2924" as="targetPoint" />
            <Array as="points">
              <mxPoint x="750" y="2925" />
              <mxPoint x="750" y="2755" />
            </Array>
          </mxGeometry>
        </mxCell>
        <mxCell id="K87zxG0gz5tmunMgLMRo-31" style="edgeStyle=orthogonalEdgeStyle;rounded=0;orthogonalLoop=1;jettySize=auto;html=1;exitX=0;exitY=0.5;exitDx=0;exitDy=0;" edge="1" parent="1" source="K87zxG0gz5tmunMgLMRo-45">
          <mxGeometry relative="1" as="geometry">
            <mxPoint x="1020" y="1800" as="targetPoint" />
            <Array as="points">
              <mxPoint x="700" y="3505" />
              <mxPoint x="700" y="1800" />
            </Array>
            <mxPoint x="650" y="3510" as="sourcePoint" />
          </mxGeometry>
        </mxCell>
        <mxCell id="K87zxG0gz5tmunMgLMRo-32" value="Конец" style="ellipse;whiteSpace=wrap;html=1;" vertex="1" parent="1">
          <mxGeometry x="929" y="3640" width="160" height="50" as="geometry" />
        </mxCell>
        <mxCell id="K87zxG0gz5tmunMgLMRo-33" value="&lt;font style=&quot;font-size: 30px;&quot;&gt;&lt;b style=&quot;&quot;&gt;Блоксхема #2&lt;/b&gt;&lt;/font&gt;" style="text;html=1;align=center;verticalAlign=middle;resizable=0;points=[];autosize=1;strokeColor=none;fillColor=none;" vertex="1" parent="1">
          <mxGeometry x="918" y="1530" width="230" height="50" as="geometry" />
        </mxCell>
        <mxCell id="K87zxG0gz5tmunMgLMRo-34" value="n = int.Parse(line)" style="rounded=0;whiteSpace=wrap;html=1;" vertex="1" parent="1">
          <mxGeometry x="907" y="1975" width="226" height="60" as="geometry" />
        </mxCell>
        <mxCell id="K87zxG0gz5tmunMgLMRo-35" style="edgeStyle=orthogonalEdgeStyle;rounded=0;orthogonalLoop=1;jettySize=auto;html=1;exitX=0.5;exitY=1;exitDx=0;exitDy=0;entryX=0.5;entryY=0;entryDx=0;entryDy=0;" edge="1" parent="1" source="K87zxG0gz5tmunMgLMRo-36" target="K87zxG0gz5tmunMgLMRo-38">
          <mxGeometry relative="1" as="geometry" />
        </mxCell>
        <mxCell id="K87zxG0gz5tmunMgLMRo-36" value="int[] a = new int[n + 1]" style="rounded=0;whiteSpace=wrap;html=1;" vertex="1" parent="1">
          <mxGeometry x="907" y="2215" width="226" height="60" as="geometry" />
        </mxCell>
        <mxCell id="K87zxG0gz5tmunMgLMRo-37" style="edgeStyle=orthogonalEdgeStyle;rounded=0;orthogonalLoop=1;jettySize=auto;html=1;exitX=0.5;exitY=1;exitDx=0;exitDy=0;entryX=0.5;entryY=0;entryDx=0;entryDy=0;" edge="1" parent="1" source="K87zxG0gz5tmunMgLMRo-38" target="K87zxG0gz5tmunMgLMRo-49">
          <mxGeometry relative="1" as="geometry" />
        </mxCell>
        <mxCell id="K87zxG0gz5tmunMgLMRo-38" value="a[0] = 0" style="rounded=0;whiteSpace=wrap;html=1;" vertex="1" parent="1">
          <mxGeometry x="907" y="2295" width="226" height="60" as="geometry" />
        </mxCell>
        <mxCell id="K87zxG0gz5tmunMgLMRo-39" value="a[1] = 1" style="rounded=0;whiteSpace=wrap;html=1;" vertex="1" parent="1">
          <mxGeometry x="907" y="2535" width="226" height="60" as="geometry" />
        </mxCell>
        <mxCell id="K87zxG0gz5tmunMgLMRo-40" style="edgeStyle=orthogonalEdgeStyle;rounded=0;orthogonalLoop=1;jettySize=auto;html=1;exitX=0.5;exitY=1;exitDx=0;exitDy=0;entryX=0.5;entryY=0;entryDx=0;entryDy=0;" edge="1" parent="1" source="K87zxG0gz5tmunMgLMRo-41" target="K87zxG0gz5tmunMgLMRo-18">
          <mxGeometry relative="1" as="geometry" />
        </mxCell>
        <mxCell id="K87zxG0gz5tmunMgLMRo-41" value="maxVal = Math.Max(a[0], n &amp;gt;= 1 ? a[1] : 0)" style="rounded=0;whiteSpace=wrap;html=1;" vertex="1" parent="1">
          <mxGeometry x="907" y="2640" width="226" height="60" as="geometry" />
        </mxCell>
        <mxCell id="K87zxG0gz5tmunMgLMRo-42" value="a[i] = a[i / 2] + a[i / 2 + 1]" style="rounded=0;whiteSpace=wrap;html=1;" vertex="1" parent="1">
          <mxGeometry x="1030" y="2954" width="226" height="60" as="geometry" />
        </mxCell>
        <mxCell id="K87zxG0gz5tmunMgLMRo-43" value="a[i] = a[i / 2]" style="rounded=0;whiteSpace=wrap;html=1;" vertex="1" parent="1">
          <mxGeometry x="770" y="2954" width="226" height="60" as="geometry" />
        </mxCell>
        <mxCell id="K87zxG0gz5tmunMgLMRo-44" value="maxVal = a[i]" style="rounded=0;whiteSpace=wrap;html=1;" vertex="1" parent="1">
          <mxGeometry x="887" y="3270" width="226" height="60" as="geometry" />
        </mxCell>
        <mxCell id="K87zxG0gz5tmunMgLMRo-45" value="Console.WriteLine(maxVal)" style="rounded=0;whiteSpace=wrap;html=1;" vertex="1" parent="1">
          <mxGeometry x="897" y="3475" width="226" height="60" as="geometry" />
        </mxCell>
        <mxCell id="K87zxG0gz5tmunMgLMRo-46" style="edgeStyle=orthogonalEdgeStyle;rounded=0;orthogonalLoop=1;jettySize=auto;html=1;exitX=1;exitY=0.5;exitDx=0;exitDy=0;" edge="1" parent="1" source="K87zxG0gz5tmunMgLMRo-47">
          <mxGeometry relative="1" as="geometry">
            <mxPoint x="1010.0000000000005" y="3610" as="targetPoint" />
            <Array as="points">
              <mxPoint x="1330" y="2125" />
              <mxPoint x="1330" y="3560" />
              <mxPoint x="930" y="3560" />
              <mxPoint x="930" y="3610" />
            </Array>
          </mxGeometry>
        </mxCell>
        <mxCell id="K87zxG0gz5tmunMgLMRo-47" value="n == 0" style="rhombus;whiteSpace=wrap;html=1;" vertex="1" parent="1">
          <mxGeometry x="930" y="2065" width="180" height="120" as="geometry" />
        </mxCell>
        <mxCell id="K87zxG0gz5tmunMgLMRo-48" style="edgeStyle=orthogonalEdgeStyle;rounded=0;orthogonalLoop=1;jettySize=auto;html=1;exitX=0.5;exitY=1;exitDx=0;exitDy=0;entryX=0.5;entryY=0;entryDx=0;entryDy=0;" edge="1" parent="1" source="K87zxG0gz5tmunMgLMRo-49" target="K87zxG0gz5tmunMgLMRo-39">
          <mxGeometry relative="1" as="geometry" />
        </mxCell>
        <mxCell id="K87zxG0gz5tmunMgLMRo-49" value="n &amp;gt;= 1" style="rhombus;whiteSpace=wrap;html=1;" vertex="1" parent="1">
          <mxGeometry x="930" y="2390" width="180" height="120" as="geometry" />
        </mxCell>
        <mxCell id="K87zxG0gz5tmunMgLMRo-50" style="edgeStyle=orthogonalEdgeStyle;rounded=0;orthogonalLoop=1;jettySize=auto;html=1;exitX=0;exitY=0.5;exitDx=0;exitDy=0;entryX=0.5;entryY=0;entryDx=0;entryDy=0;" edge="1" parent="1" source="K87zxG0gz5tmunMgLMRo-51" target="K87zxG0gz5tmunMgLMRo-43">
          <mxGeometry relative="1" as="geometry">
            <mxPoint x="920" y="2950" as="targetPoint" />
          </mxGeometry>
        </mxCell>
        <mxCell id="K87zxG0gz5tmunMgLMRo-51" value="i % 2 == 0" style="rhombus;whiteSpace=wrap;html=1;" vertex="1" parent="1">
          <mxGeometry x="930" y="2799" width="180" height="120" as="geometry" />
        </mxCell>
        <mxCell id="K87zxG0gz5tmunMgLMRo-52" value="да" style="text;html=1;align=center;verticalAlign=middle;resizable=0;points=[];autosize=1;strokeColor=none;fillColor=none;" vertex="1" parent="1">
          <mxGeometry x="1020" y="2505" width="40" height="30" as="geometry" />
        </mxCell>
        <mxCell id="K87zxG0gz5tmunMgLMRo-53" style="edgeStyle=orthogonalEdgeStyle;rounded=0;orthogonalLoop=1;jettySize=auto;html=1;exitX=0.5;exitY=1;exitDx=0;exitDy=0;entryX=0.5;entryY=0;entryDx=0;entryDy=0;" edge="1" parent="1" source="K87zxG0gz5tmunMgLMRo-18" target="K87zxG0gz5tmunMgLMRo-51">
          <mxGeometry relative="1" as="geometry" />
        </mxCell>
        <mxCell id="K87zxG0gz5tmunMgLMRo-54" style="edgeStyle=orthogonalEdgeStyle;rounded=0;orthogonalLoop=1;jettySize=auto;html=1;exitX=1;exitY=0.5;exitDx=0;exitDy=0;" edge="1" parent="1" source="K87zxG0gz5tmunMgLMRo-55">
          <mxGeometry relative="1" as="geometry">
            <mxPoint x="1010" y="3390" as="targetPoint" />
            <Array as="points">
              <mxPoint x="1130" y="3175" />
              <mxPoint x="1130" y="3390" />
            </Array>
          </mxGeometry>
        </mxCell>
        <mxCell id="K87zxG0gz5tmunMgLMRo-55" value="a[i] &amp;gt; maxVal" style="rhombus;whiteSpace=wrap;html=1;" vertex="1" parent="1">
          <mxGeometry x="920" y="3115" width="180" height="120" as="geometry" />
        </mxCell>
        <mxCell id="K87zxG0gz5tmunMgLMRo-56" value="" style="endArrow=none;html=1;rounded=0;entryX=0.532;entryY=0.987;entryDx=0;entryDy=0;entryPerimeter=0;" edge="1" parent="1">
          <mxGeometry width="50" height="50" relative="1" as="geometry">
            <mxPoint x="1010" y="3440" as="sourcePoint" />
            <mxPoint x="1010.232" y="3329.22" as="targetPoint" />
          </mxGeometry>
        </mxCell>
        <mxCell id="K87zxG0gz5tmunMgLMRo-57" value="" style="endArrow=none;html=1;rounded=0;" edge="1" parent="1">
          <mxGeometry width="50" height="50" relative="1" as="geometry">
            <mxPoint x="750" y="3440" as="sourcePoint" />
            <mxPoint x="1010" y="3440" as="targetPoint" />
          </mxGeometry>
        </mxCell>
        <mxCell id="K87zxG0gz5tmunMgLMRo-58" style="edgeStyle=orthogonalEdgeStyle;rounded=0;orthogonalLoop=1;jettySize=auto;html=1;exitX=1;exitY=0.5;exitDx=0;exitDy=0;entryX=0.5;entryY=0;entryDx=0;entryDy=0;" edge="1" parent="1" source="K87zxG0gz5tmunMgLMRo-18" target="K87zxG0gz5tmunMgLMRo-45">
          <mxGeometry relative="1" as="geometry">
            <Array as="points">
              <mxPoint x="1280" y="2755" />
              <mxPoint x="1280" y="3450" />
              <mxPoint x="1010" y="3450" />
            </Array>
          </mxGeometry>
        </mxCell>
      </root>
    </mxGraphModel>
  </diagram>
</mxfile>
